<svg width="92" height="32" viewBox="0 0 92 32" fill="none" xmlns="http://www.w3.org/2000/svg">
<path d="M11.424 9.312V28.128H5.152V9.312H0V4H16.576V9.312H11.424Z" fill="#535862"/>
<path d="M22.9038 11.712V20.96C22.9038 22.9867 23.8851 24 25.8477 24C27.8104 24 28.7917 22.9867 28.7917 20.96V11.712H34.5838V22.08C34.5838 24.2987 33.8478 25.9627 32.3758 27.072C30.9251 28.1813 28.7491 28.736 25.8477 28.736C22.9464 28.736 20.7598 28.1813 19.2878 27.072C17.8371 25.9627 17.1117 24.2987 17.1117 22.08V11.712H22.9038Z" fill="#535862"/>
<path d="M37.558 11.712H43.35V14.4C43.9687 13.4187 44.726 12.672 45.622 12.16C46.518 11.6267 47.5633 11.36 48.758 11.36C48.9073 11.36 49.0673 11.36 49.238 11.36C49.43 11.36 49.6433 11.3813 49.878 11.424V16.96C49.11 16.576 48.278 16.384 47.382 16.384C46.038 16.384 45.0247 16.7893 44.342 17.6C43.6807 18.3893 43.35 19.552 43.35 21.088V28.128H37.558V11.712Z" fill="#535862"/>
<path d="M57.0677 19.872C57.0677 20.4053 57.1637 20.9067 57.3558 21.376C57.5478 21.824 57.8037 22.2187 58.1237 22.56C58.4651 22.9013 58.8597 23.168 59.3078 23.36C59.7771 23.552 60.2784 23.648 60.8117 23.648C61.3237 23.648 61.8037 23.552 62.2518 23.36C62.7211 23.168 63.1157 22.9013 63.4357 22.56C63.7771 22.2187 64.0437 21.824 64.2357 21.376C64.4491 20.928 64.5557 20.448 64.5557 19.936C64.5557 19.424 64.4491 18.944 64.2357 18.496C64.0437 18.0267 63.7771 17.6213 63.4357 17.28C63.1157 16.9387 62.7211 16.672 62.2518 16.48C61.8037 16.288 61.3237 16.192 60.8117 16.192C60.2784 16.192 59.7771 16.288 59.3078 16.48C58.8597 16.672 58.4651 16.9387 58.1237 17.28C57.8037 17.6213 57.5478 18.016 57.3558 18.464C57.1637 18.8907 57.0677 19.36 57.0677 19.872ZM64.3637 11.712H70.1878V28.128H64.3637V26.304C63.1264 27.8613 61.4517 28.64 59.3397 28.64C58.1451 28.64 57.0464 28.4267 56.0438 28C55.0411 27.552 54.1664 26.9333 53.4198 26.144C52.6731 25.3547 52.0864 24.4267 51.6597 23.36C51.2544 22.2933 51.0518 21.1307 51.0518 19.872C51.0518 18.6987 51.2544 17.5893 51.6597 16.544C52.0651 15.4773 52.6304 14.5493 53.3558 13.76C54.0811 12.9707 54.9451 12.352 55.9478 11.904C56.9504 11.4347 58.0597 11.2 59.2757 11.2C61.3237 11.2 63.0197 11.9147 64.3637 13.344V11.712Z" fill="#535862"/>
<path d="M73.1693 11.712H78.9613V13.792C79.7506 12.832 80.5506 12.192 81.3613 11.872C82.1719 11.5307 83.1213 11.36 84.2093 11.36C85.3613 11.36 86.3426 11.552 87.1533 11.936C87.9853 12.2987 88.6893 12.8213 89.2653 13.504C89.7346 14.0587 90.0546 14.6773 90.2253 15.36C90.3959 16.0427 90.4813 16.8213 90.4813 17.696V28.128H84.6893V19.84C84.6893 19.0293 84.6253 18.3787 84.4973 17.888C84.3906 17.376 84.1879 16.9707 83.8893 16.672C83.6333 16.416 83.3453 16.2347 83.0253 16.128C82.7053 16.0213 82.3639 15.968 82.0013 15.968C81.0199 15.968 80.2626 16.2667 79.7293 16.864C79.2173 17.44 78.9613 18.272 78.9613 19.36V28.128H73.1693V11.712Z" fill="#535862"/>
</svg>
