<svg width="136" height="136" viewBox="0 0 136 136" fill="none" xmlns="http://www.w3.org/2000/svg">
<rect x="8" y="8" width="120" height="120" rx="60" fill="#E9EAEB"/>
<rect x="8" y="8" width="120" height="120" rx="60" stroke="#F5F5F5" stroke-width="16"/>
<path d="M44.1665 44.167H52.8332L58.6398 73.1787C58.838 74.1762 59.3806 75.0722 60.1729 75.71C60.9651 76.3477 61.9563 76.6865 62.9732 76.667H84.0332C85.05 76.6865 86.0413 76.3477 86.8335 75.71C87.6257 75.0722 88.1684 74.1762 88.3665 73.1787L91.8332 55.0003H54.9998M63.6665 87.5003C63.6665 88.6969 62.6965 89.667 61.4998 89.667C60.3032 89.667 59.3332 88.6969 59.3332 87.5003C59.3332 86.3037 60.3032 85.3337 61.4998 85.3337C62.6965 85.3337 63.6665 86.3037 63.6665 87.5003ZM87.4998 87.5003C87.4998 88.6969 86.5298 89.667 85.3332 89.667C84.1366 89.667 83.1665 88.6969 83.1665 87.5003C83.1665 86.3037 84.1366 85.3337 85.3332 85.3337C86.5298 85.3337 87.4998 86.3037 87.4998 87.5003Z" stroke="#535862" stroke-width="4" stroke-linecap="round" stroke-linejoin="round"/>
</svg>
