<svg width="136" height="136" viewBox="0 0 136 136" fill="none" xmlns="http://www.w3.org/2000/svg">
<rect x="8" y="8" width="120" height="120" rx="60" fill="#D1FADF"/>
<rect x="8" y="8" width="120" height="120" rx="60" stroke="#ECFDF3" stroke-width="16"/>
<path d="M89.6664 66.0068V68.0001C89.6637 72.6724 88.1508 77.2186 85.3532 80.9607C82.5557 84.7029 78.6235 87.4405 74.143 88.7652C69.6624 90.09 64.8737 89.9309 60.491 88.3117C56.1083 86.6925 52.3664 83.7 49.8234 79.7804C47.2804 75.8609 46.0726 71.2243 46.38 66.5621C46.6874 61.9 48.4936 57.4622 51.5293 53.9104C54.5649 50.3587 58.6674 47.8834 63.2248 46.8538C67.7821 45.8241 72.5503 46.2952 76.818 48.1968M89.6664 50.6668L67.9997 72.3551L61.4997 65.8551" stroke="#039855" stroke-width="4" stroke-linecap="round" stroke-linejoin="round"/>
</svg>
