<svg width="136" height="136" viewBox="0 0 136 136" fill="none" xmlns="http://www.w3.org/2000/svg">
<rect x="8" y="8" width="120" height="120" rx="60" fill="#FEF0C7"/>
<rect x="8" y="8" width="120" height="120" rx="60" stroke="#FFFAEB" stroke-width="16"/>
<path d="M67.9997 59.333V67.9996M67.9997 76.6663H68.0213M64.2947 48.1963L45.943 78.833C45.5646 79.4882 45.3644 80.2311 45.3623 80.9878C45.3602 81.7444 45.5562 82.4884 45.9309 83.1458C46.3056 83.8031 46.8459 84.3509 47.498 84.7346C48.1502 85.1184 48.8914 85.3247 49.648 85.333H86.3513C87.1079 85.3247 87.8492 85.1184 88.5013 84.7346C89.1534 84.3509 89.6937 83.8031 90.0684 83.1458C90.4431 82.4884 90.6392 81.7444 90.637 80.9878C90.6349 80.2311 90.4347 79.4882 90.0563 78.833L71.7047 48.1963C71.3184 47.5595 70.7746 47.0331 70.1256 46.6677C69.4766 46.3023 68.7444 46.1104 67.9997 46.1104C67.2549 46.1104 66.5227 46.3023 65.8738 46.6677C65.2248 47.0331 64.6809 47.5595 64.2947 48.1963Z" stroke="#DC6803" stroke-width="4" stroke-linecap="round" stroke-linejoin="round"/>
</svg>
