<svg width="136" height="136" viewBox="0 0 136 136" fill="none" xmlns="http://www.w3.org/2000/svg">
<rect x="8" y="8" width="120" height="120" rx="60" fill="#E9EAEB"/>
<rect x="8" y="8" width="120" height="120" rx="60" stroke="#F5F5F5" stroke-width="16"/>
<g clip-path="url(#clip0_8701_135907)">
<path d="M44.167 44.167L91.8337 91.8337M78.227 65.9637C80.0017 66.8298 81.6612 67.9143 83.167 69.192M52.8337 69.192C56.0448 66.5071 59.9097 64.7205 64.0353 64.0137M65.2053 52.942C69.8472 52.568 74.5169 53.133 78.9356 54.6034C83.3543 56.0739 87.4314 58.4195 90.9237 61.5003M45.077 61.5003C48.0825 58.8437 51.5287 56.732 55.2603 55.2603M60.482 76.9053C62.6816 75.3426 65.3129 74.503 68.0112 74.503C70.7094 74.503 73.3407 75.3426 75.5403 76.9053M68.0003 85.3337H68.022" stroke="#535862" stroke-width="4" stroke-linecap="round" stroke-linejoin="round"/>
</g>
<defs>
<clipPath id="clip0_8701_135907">
<rect width="52" height="52" fill="white" transform="translate(42 42)"/>
</clipPath>
</defs>
</svg>
